<svg width="48" height="48" viewBox="0 0 48 48" fill="none" xmlns="http://www.w3.org/2000/svg">
<mask id="mask0_39_104" style="mask-type:alpha" maskUnits="userSpaceOnUse" x="0" y="0" width="48" height="48">
<rect width="48" height="48" fill="#001629"/>
</mask>
<g mask="url(#mask0_39_104)">
<path d="M23.9715 42.9109L21.4415 40.6369C17.8515 37.3469 14.8923 34.5081 12.564 32.1204C10.2357 29.7328 8.37885 27.5951 6.99351 25.7074C5.60785 23.8198 4.64001 22.1024 4.09001 20.5554C3.54001 19.0084 3.26501 17.4399 3.26501 15.8499C3.26501 12.6426 4.33935 9.95994 6.48801 7.80194C8.63668 5.64394 11.2978 4.56494 14.4715 4.56494C16.3528 4.56494 18.0972 4.98677 19.7045 5.83044C21.3115 6.67377 22.7338 7.90778 23.9715 9.53244C25.4095 7.80778 26.9023 6.54877 28.45 5.75544C29.9977 4.96177 31.6715 4.56494 33.4715 4.56494C36.6645 4.56494 39.34 5.64394 41.498 7.80194C43.656 9.95994 44.735 12.6426 44.735 15.8499C44.735 17.4399 44.46 19.0038 43.91 20.5414C43.36 22.0791 42.3922 23.7918 41.0065 25.6794C39.6212 27.5671 37.7597 29.7094 35.422 32.1064C33.084 34.5034 30.1202 37.3469 26.5305 40.6369L23.9715 42.9109Z" fill="#001629"/>
</g>
</svg>
