<svg width="48" height="48" viewBox="0 0 48 48" fill="none" xmlns="http://www.w3.org/2000/svg">
<mask id="mask0_39_98" style="mask-type:alpha" maskUnits="userSpaceOnUse" x="0" y="0" width="48" height="48">
<rect width="48" height="48" fill="#001629"/>
</mask>
<g mask="url(#mask0_39_98)">
<path d="M23.9715 42.9109L21.4415 40.6369C17.8592 37.3429 14.902 34.5031 12.57 32.1174C10.2377 29.7318 8.37885 27.5951 6.99351 25.7074C5.60785 23.8198 4.64001 22.1024 4.09001 20.5554C3.54001 19.0084 3.26501 17.4389 3.26501 15.8469C3.26501 12.6333 4.34085 9.94961 6.49251 7.79594C8.64418 5.64194 11.3038 4.56494 14.4715 4.56494C16.3582 4.56494 18.1038 4.98677 19.7085 5.83044C21.3128 6.67377 22.7338 7.90778 23.9715 9.53244C25.4095 7.80778 26.9027 6.54877 28.451 5.75544C29.9994 4.96177 31.6728 4.56494 33.4715 4.56494C36.6715 4.56494 39.3487 5.64211 41.503 7.79644C43.6577 9.95111 44.735 12.6356 44.735 15.8499C44.735 17.4393 44.46 19.0029 43.91 20.5409C43.36 22.0789 42.3922 23.7918 41.0065 25.6794C39.6212 27.5671 37.7589 29.7094 35.4195 32.1064C33.0805 34.5038 30.1175 37.3473 26.5305 40.6369L23.9715 42.9109ZM23.9575 37.6889C27.3228 34.5893 30.0857 31.9451 32.246 29.7564C34.4067 27.5681 36.1192 25.6548 37.3835 24.0164C38.6482 22.3778 39.5293 20.9189 40.027 19.6399C40.525 18.3609 40.774 17.1003 40.774 15.8579C40.774 13.7279 40.0942 11.9734 38.7345 10.5944C37.3748 9.21544 35.6288 8.52594 33.4965 8.52594C31.8265 8.52594 30.2748 9.05561 28.8415 10.1149C27.4082 11.1746 26.2415 12.6449 25.3415 14.5259H22.5805C21.7185 12.6593 20.563 11.1926 19.114 10.1259C17.665 9.05928 16.1153 8.52594 14.465 8.52594C12.3587 8.52594 10.6303 9.20944 9.28001 10.5764C7.92968 11.9431 7.25451 13.7063 7.25451 15.8659C7.25451 17.1379 7.50752 18.4236 8.01351 19.7229C8.51951 21.0223 9.40535 22.4983 10.671 24.1509C11.9367 25.8039 13.646 27.7163 15.799 29.8879C17.952 32.0596 20.6715 34.6599 23.9575 37.6889Z" fill="#001629"/>
</g>
</svg>
