<svg width="48" height="48" viewBox="0 0 48 48" fill="none" xmlns="http://www.w3.org/2000/svg">
<mask id="mask0_39_116" style="mask-type:alpha" maskUnits="userSpaceOnUse" x="0" y="0" width="48" height="48">
<rect width="48" height="48" fill="#001629"/>
</mask>
<g mask="url(#mask0_39_116)">
<path d="M7.29346 38.7064V34.7454H11.039V20.2519C11.039 17.2882 11.897 14.6119 13.613 12.2229C15.329 9.83356 17.6311 8.32739 20.5195 7.70439V6.77389C20.5195 5.79923 20.8578 4.97073 21.5345 4.28839C22.2115 3.60606 23.0333 3.26489 24 3.26489C24.9666 3.26489 25.7885 3.60606 26.4655 4.28839C27.1421 4.97073 27.4805 5.79923 27.4805 6.77389V7.70439C30.3688 8.30873 32.6756 9.80873 34.401 12.2044C36.1263 14.6001 36.989 17.2826 36.989 20.2519V34.7454H40.735V38.7064H7.29346ZM24.014 44.9609C22.849 44.9609 21.8511 44.5442 21.0205 43.7109C20.1895 42.8779 19.774 41.8764 19.774 40.7064H28.2545C28.2545 41.8817 27.837 42.8847 27.002 43.7154C26.1673 44.5457 25.1713 44.9609 24.014 44.9609Z" fill="#001629"/>
</g>
</svg>
