<svg width="48" height="48" viewBox="0 0 48 48" fill="none" xmlns="http://www.w3.org/2000/svg">
<mask id="mask0_26_65" style="mask-type:alpha" maskUnits="userSpaceOnUse" x="0" y="0" width="48" height="48">
<rect width="48" height="48" fill="#D9D9D9"/>
</mask>
<g mask="url(#mask0_26_65)">
<path d="M35.8392 38L25.8406 28.015C25.1042 28.6225 24.2396 29.0975 23.2467 29.4401C22.2541 29.7824 21.1866 29.9535 20.0443 29.9535C17.2388 29.9535 14.8633 28.9791 12.9179 27.0301C10.9726 25.0814 10 22.7303 10 19.9768C10 17.2232 10.9737 14.8721 12.9212 12.9234C14.8685 10.9745 17.2241 10 19.988 10C22.752 10 25.1014 10.9745 27.0361 12.9234C28.9711 14.8721 29.9386 17.2251 29.9386 19.9824C29.9386 21.0837 29.774 22.1245 29.445 23.1049C29.1157 24.0853 28.622 25.0067 27.9639 25.8691L38 35.8376L35.8392 38ZM20.0143 26.9779C21.9576 26.9779 23.6018 26.2951 24.947 24.9297C26.2924 23.5642 26.9651 21.9132 26.9651 19.9768C26.9651 18.0403 26.2914 16.3894 24.944 15.0239C23.5965 13.6584 21.9533 12.9756 20.0143 12.9756C18.0543 12.9756 16.3908 13.6584 15.0239 15.0239C13.6569 16.3894 12.9734 18.0403 12.9734 19.9768C12.9734 21.9132 13.6559 23.5642 15.0209 24.9297C16.3858 26.2951 18.0503 26.9779 20.0143 26.9779Z" fill="#001629"/>
</g>
</svg>
